<svg width="211.398" height="300" xmlns="http://www.w3.org/2000/svg"><path d="M401.823 942.227s-2.595-64.692-55.56-89.208c-36.246-16.779-70.832-5.49-117.088-5.49-32.967 0-86.87 1.251-120.274-12.742-43.014-18.02-71.496-66.554-73.264-119.28-1.641-48.989 18.319-114.11 70.64-112.75 42.887 1.113 57.054 58.468 57.054 75.167 0 31.02-9.965 62.699-26.982 84.38-6.959 8.865 4.456 10.815 7.276 8.683 15.555-11.765 34.562-54.285 37.35-86.27 2.908-33.319-17.726-102.337-80.131-102.337-62.567 0-93.35 66.11-93.35 113.656 0 26.263 7.284 80.075 51.237 136.298 41.379 52.93 108.312 84.676 162.108 84.676 47.093 0 75.62-11.773 110.487-7.245 35.166 4.567 54.14 16.104 70.497 32.462" style="fill:#fab85f;fill-opacity:1;fill-rule:nonzero;stroke:none;stroke-width:.13333" transform="scale(.24876)"/><path d="M100.844 574.886c-16.191 0-31.266 4.078-44.809 12.123-12.042 7.154-22.639 17.284-31.495 30.112C9.174 639.373 0 668.874 0 696.036c0 22.051 5.147 79.926 52.828 140.914 20.49 26.21 47.774 48.428 78.904 64.251 29.565 15.028 61.209 23.304 89.107 23.304 21.948 0 40.11-2.519 56.135-4.74 13.138-1.821 25.549-3.541 37.87-3.542 5.394 0 10.469.32 15.517.974 36.193 4.701 53.189 17.356 66.163 30.329l13.556 13.557-.768-19.157c-.03-.71-.785-17.617-8.396-37.758-10.22-27.046-28.03-47.084-51.504-57.95-14.79-6.846-30.096-9.899-49.636-9.899-10.406 0-20.931.84-32.075 1.73-12.212.975-24.84 1.985-38.526 1.985-2.413 0-4.938.01-7.561.013-2.813.01-5.74.016-8.754.016-71.97 0-91.619-8.233-101.065-12.19-39.367-16.49-66.962-61.748-68.667-112.616-.927-27.662 5.621-67.856 27.13-90.098 9.58-9.907 21.158-14.93 34.414-14.93.469 0 .936.01 1.41.02 37.314.97 49.755 53.618 49.755 67.675 0 29.689-9.49 59.503-25.383 79.752-5.246 6.682-3.942 11.973-2.698 14.531 2.534 5.21 8.227 7.066 12.709 7.066 2.112 0 5.158-.4 7.68-2.308 17.78-13.448 37.365-57.962 40.298-91.598 1.058-12.132-.79-27.249-5.068-41.476-5.092-16.928-13.29-31.885-23.711-43.253-15.441-16.847-35.781-25.752-58.82-25.752zm0 7.494c62.405 0 83.039 69.018 80.132 102.336-2.79 31.986-21.796 74.506-37.351 86.271-.68.514-1.858.791-3.16.791-4.096 0-9.398-2.745-4.116-9.474 17.017-21.681 26.982-53.36 26.982-84.38 0-16.7-14.167-74.054-57.054-75.167a57.614 57.614 0 0 0-1.605-.021c-51.122 0-70.66 64.288-69.035 112.772 1.768 52.725 30.25 101.26 73.264 119.28 28.334 11.869 71.414 12.77 103.959 12.77 5.823 0 11.31-.03 16.315-.03 26.537 0 49.23-3.714 70.6-3.714 15.883 0 31.036 2.052 46.489 9.205 52.964 24.517 55.56 89.209 55.56 89.209-16.358-16.358-35.331-27.894-70.498-32.462-5.624-.73-11.082-1.036-16.481-1.036-28.071 0-54.51 8.281-94.006 8.281-53.796 0-120.729-31.747-162.108-84.676C14.778 776.112 7.494 722.3 7.494 696.037c0-47.546 30.783-113.656 93.35-113.656" style="fill:#f89f2e;fill-opacity:1;fill-rule:nonzero;stroke:none;stroke-width:.13333" transform="scale(.24876)"/><path d="M447.999 942.227s2.595-64.692 55.559-89.208c36.247-16.779 70.833-5.49 117.089-5.49 32.967 0 86.87 1.251 120.274-12.742 43.014-18.02 71.496-66.554 73.264-119.28 1.64-48.989-18.32-114.11-70.64-112.75-42.887 1.113-57.055 58.468-57.055 75.167 0 31.02 9.965 62.699 26.984 84.38 6.958 8.865-4.456 10.815-7.276 8.683-15.556-11.765-34.563-54.285-37.353-86.27-2.906-33.319 17.728-102.337 80.133-102.337 62.567 0 93.35 66.11 93.35 113.656 0 26.263-7.284 80.075-51.238 136.298-41.38 52.93-108.312 84.676-162.108 84.676-47.092 0-75.62-11.773-110.486-7.245-35.166 4.567-54.14 16.104-70.497 32.462" style="fill:#fab85f;fill-opacity:1;fill-rule:nonzero;stroke:none;stroke-width:.13333" transform="scale(.24876)"/><path d="M748.979 574.886c-23.04 0-43.38 8.905-58.821 25.751-10.42 11.37-18.62 26.326-23.711 43.254-4.28 14.226-6.127 29.344-5.068 41.476 2.935 33.636 22.518 78.15 40.298 91.598 2.522 1.908 5.568 2.308 7.679 2.308 4.483 0 10.176-1.856 12.709-7.066 1.244-2.558 2.548-7.849-2.697-14.531-15.894-20.25-25.383-50.063-25.383-79.752 0-14.057 12.442-66.706 49.755-67.675.474-.012.94-.02 1.41-.02 13.256 0 24.836 5.026 34.415 14.934 13.443 13.9 28.613 45.836 27.129 90.094-1.705 50.868-29.301 96.125-68.668 112.617-29.095 12.189-77.703 12.189-101.064 12.189-3.016 0-5.941-.01-8.756-.016-2.621-.01-5.146-.013-7.56-.013-13.686 0-26.313-1.01-38.526-1.984-11.143-.89-21.668-1.73-32.074-1.73-19.54 0-34.847 3.052-49.636 9.897-23.474 10.867-41.285 30.905-51.504 57.951-7.611 20.14-8.368 37.049-8.396 37.758l-.768 19.157 13.556-13.557c12.974-12.973 29.969-25.628 66.163-30.329 5.048-.655 10.124-.975 15.516-.975 12.324 0 24.734 1.722 37.872 3.543 16.025 2.221 34.187 4.74 56.133 4.74 27.898 0 59.543-8.276 89.108-23.303 31.129-15.824 58.414-38.042 78.904-64.252 47.68-60.99 52.828-118.863 52.828-140.914 0-27.162-9.173-56.663-24.54-78.915-8.856-12.828-19.453-22.959-31.494-30.112-13.544-8.045-28.62-12.123-44.81-12.123zm0 7.494c62.566 0 93.349 66.11 93.349 113.656 0 26.263-7.284 80.075-51.238 136.298-41.38 52.93-108.312 84.676-162.108 84.676-39.496 0-65.934-8.28-94.005-8.28-5.4 0-10.856.305-16.481 1.035-35.166 4.568-54.14 16.104-70.497 32.462 0 0 2.595-64.692 55.559-89.208 15.454-7.153 30.606-9.205 46.488-9.205 21.37 0 44.064 3.714 70.6 3.714 5.005 0 10.492.03 16.316.03 32.545 0 75.626-.902 103.959-12.771 43.014-18.02 71.496-66.554 73.264-119.28 1.625-48.484-17.913-112.768-69.035-112.772-.533 0-1.065.01-1.605.021-42.887 1.114-57.055 58.468-57.055 75.168 0 31.019 9.965 62.698 26.984 84.379 5.28 6.73-.02 9.474-4.118 9.474-1.301 0-2.48-.277-3.158-.79-15.556-11.765-34.563-54.286-37.353-86.271-2.906-33.318 17.728-102.337 80.134-102.337" style="fill:#f89f2e;fill-opacity:1;fill-rule:nonzero;stroke:none;stroke-width:.13333" transform="scale(.24876)"/><path d="M424.909 138.546c-12.752 0-23.09-13.92-23.09-31.091 0-17.17 10.338-31.09 23.09-31.09s23.09 13.92 23.09 31.09c0 17.171-10.338 31.09-23.09 31.09zm0 687.01c-12.752 0-23.09-13.919-23.09-31.09 0-17.17 10.338-31.09 23.09-31.09s23.09 13.92 23.09 31.09c0 17.171-10.338 31.09-23.09 31.09zM596.15 191.23h-44.805s-.532-25.11-19.048-41.36c-12.131-10.647-33.922-15.419-33.922-15.419s-.688-31.103-16.57-49.947C464.7 64.212 450.32 61.331 447.299 58.308c-3.023-3.023-8.232-6.727-15.365-18.134-3.917-6.265-7.025-15.87-7.025-15.87s-3.107 9.605-7.025 15.87c-7.133 11.407-12.341 15.111-15.364 18.134-3.022 3.023-17.403 5.904-34.507 26.195-15.882 18.844-16.572 49.947-16.572 49.947s-21.788 4.772-33.921 15.418c-18.516 16.25-19.047 41.36-19.047 41.36h-44.806l-.06 524.527s7.758 7.756 18.326 7.756c10.414 0 25.05-5.389 25.05-5.389s5.612 17.358 18.526 31.946c9.733 10.996 36.94 20.893 36.94 20.893s-1.441 15.187 2.892 25.237c11.199 25.96 31.708 23.863 49.156 44.94 7.652 9.242 20.388 29.19 20.388 29.19s12.784-19.948 20.435-29.19c17.449-21.077 37.958-18.98 49.157-44.94 4.334-10.05 2.89-25.237 2.89-25.237s27.209-9.897 36.943-20.893c12.915-14.588 18.526-31.946 18.526-31.946s14.636 5.39 25.05 5.39c10.568 0 18.325-7.756 18.325-7.756l-.06-524.527" style="fill:#fab85f;fill-opacity:1;fill-rule:nonzero;stroke:none;stroke-width:.13333" transform="scale(.24876)"/><path d="M424.909 818.062c-8.453 0-15.594-10.805-15.594-23.595s7.14-23.597 15.594-23.597c8.453 0 15.596 10.806 15.596 23.597 0 12.79-7.143 23.595-15.596 23.595zm0-687.01c-8.453 0-15.594-10.806-15.594-23.597 0-12.79 7.14-23.596 15.594-23.596 8.453 0 15.596 10.805 15.596 23.596s-7.143 23.596-15.596 23.596zM424.899 0l-7.12 21.998c-.07.216-2.906 8.859-6.247 14.201-5.294 8.464-9.29 12.14-12.208 14.824a79.355 79.355 0 0 0-1.89 1.776c-.506.32-1.801.961-2.857 1.484-6.537 3.24-18.705 9.267-32.294 25.391-13.243 15.712-16.93 38.374-17.95 48.89-7.812 2.26-22.181 7.27-31.755 15.671-14.454 12.686-19.238 29.851-20.82 39.5h-45.584v7.492l-.06 524.527v3.105l2.196 2.196c1.019 1.019 10.336 9.95 23.625 9.95 6.837 0 14.975-1.943 20.649-3.592 3.01 6.897 8.613 17.792 17.315 27.623 8.263 9.333 25.878 17.317 34.818 20.96-.07 6.015.448 15.524 3.745 23.17 7.383 17.114 18.453 23.72 29.16 30.11 7.45 4.447 14.486 8.646 21.104 16.64 7.273 8.785 19.718 28.25 19.844 28.446l6.304 9.876 6.322-9.865c.125-.195 12.629-19.674 19.9-28.457 6.618-7.994 13.655-12.193 21.104-16.64 10.707-6.39 21.779-12.996 29.16-30.11 3.298-7.646 3.817-17.155 3.746-23.17 8.94-3.643 26.556-11.628 34.818-20.96 8.702-9.83 14.304-20.726 17.316-27.623 5.67 1.649 13.81 3.593 20.648 3.593 13.288 0 22.605-8.932 23.624-9.95l2.196-2.197v-3.105l-.06-524.527v-7.493h-45.582c-1.582-9.648-6.366-26.813-20.82-39.498-9.574-8.402-23.943-13.411-31.756-15.672-1.02-10.516-4.707-33.178-17.951-48.89-13.59-16.124-25.756-22.151-32.294-25.391-1.054-.523-2.35-1.164-2.855-1.484-.6-.59-1.23-1.168-1.891-1.778-2.917-2.683-6.915-6.358-12.206-14.822-3.368-5.384-6.222-14.117-6.251-14.205zm.01 825.557c12.752 0 23.09-13.92 23.09-31.09 0-17.172-10.338-31.091-23.09-31.091s-23.09 13.92-23.09 31.09c0 17.171 10.338 31.09 23.09 31.09m0-687.01c12.752 0 23.09-13.92 23.09-31.091 0-17.17-10.338-31.09-23.09-31.09s-23.09 13.92-23.09 31.09c0 17.171 10.338 31.09 23.09 31.09m0-114.24s3.108 9.603 7.025 15.869c7.133 11.406 12.342 15.111 15.365 18.134 3.023 3.022 17.402 5.904 34.507 26.195 15.882 18.842 16.57 49.947 16.57 49.947s21.79 4.772 33.922 15.418c18.516 16.25 19.048 41.36 19.048 41.36h44.805l.06 524.527s-7.758 7.756-18.325 7.756c-10.414 0-25.05-5.39-25.05-5.39s-5.611 17.36-18.526 31.947c-9.734 10.996-36.942 20.893-36.942 20.893s1.443 15.187-2.891 25.236c-11.2 25.961-31.708 23.864-49.157 44.94-7.65 9.243-20.435 29.192-20.435 29.192s-12.736-19.949-20.388-29.191c-17.448-21.077-37.957-18.98-49.156-44.94-4.333-10.05-2.89-25.237-2.89-25.237s-27.21-9.897-36.942-20.893c-12.914-14.588-18.528-31.947-18.528-31.947s-14.634 5.39-25.048 5.39c-10.568 0-18.326-7.756-18.326-7.756l.06-524.526h44.806s.53-25.11 19.047-41.36c12.133-10.647 33.92-15.419 33.92-15.419s.69-31.105 16.573-49.947c17.104-20.291 31.485-23.173 34.507-26.195 3.023-3.023 8.23-6.728 15.365-18.134 3.917-6.266 7.024-15.87 7.024-15.87" style="fill:#f89c2e;fill-opacity:1;fill-rule:nonzero;stroke:none;stroke-width:.13333" transform="scale(.24876)"/><path d="M313.934 637.503c-15.59 0-28.227-14.688-28.227-32.806 0-18.118 12.638-32.806 28.227-32.806s28.226 14.688 28.226 32.806c0 18.118-12.637 32.806-28.226 32.806zm32.913-60.5c-10.44-23.433-36.641-53.896-36.641-53.896s-1.065 17.682-8.734 28.333c-7.67 10.651-18.108 21.303-21.942 29.397-3.835 8.096-10.44 31.53 0 49.85 10.438 18.32 31.528 23.006 40.05 20.877 8.52-2.13 23.858-13.848 32.379-12.783 8.52 1.066 16.403 7.03 16.403 7.03s-11.077-45.374-21.515-68.808m189.038 60.5c-15.59 0-28.226-14.688-28.226-32.806 0-18.118 12.637-32.806 28.226-32.806 15.589 0 28.226 14.688 28.226 32.806 0 18.118-12.637 32.806-28.226 32.806zm34.404-56.666c-3.834-8.094-14.273-18.746-21.942-29.397-7.67-10.65-8.734-28.333-8.734-28.333s-26.202 30.463-36.641 53.896c-10.438 23.434-21.517 68.809-21.517 68.809s7.883-5.965 16.404-7.03c8.52-1.066 23.859 10.651 32.38 12.782 8.522 2.129 29.612-2.558 40.05-20.877 10.439-18.32 3.835-41.754 0-49.85M424.748 303.74c15.647-42.895 29.279-48.763 40.597-62.594-7.126-1.818-11.597-3.354-21.378-6.707-6.148 8.243-10.06 14.67-19.058 34.231-9-19.56-12.91-25.988-19.058-34.23-9.78 3.352-14.252 4.888-21.377 6.706 11.317 13.831 24.625 19.7 40.274 62.594" style="fill:#b6252a;fill-opacity:1;fill-rule:nonzero;stroke:none;stroke-width:.13333" transform="scale(.24876)"/><path d="M424.693 524.495s14.89-13.282 31.338-16.965c-18.061-26.973-26.51-40.392-26.078-86.168.432-45.777 26.26-84.525 54.498-95.447 29.318-11.34 59.544 16.518 59.544 16.518s-2.265-26.998-16.691-52.123c-12.796-22.285-34.407-33.675-34.407-33.675s-18.09 14.488-26.94 26.5c-9.245 12.548-19.791 34.148-19.791 34.148h-10.961l-10.296 20.597-10.294-20.597h-10.962s-10.546-21.6-19.791-34.147c-8.852-12.013-26.941-26.501-26.941-26.501s-21.61 11.39-34.406 33.675c-14.426 25.125-16.691 52.123-16.691 52.123s30.226-27.858 59.542-16.518c28.24 10.922 54.068 49.67 54.5 95.447.43 45.776-8.017 59.195-26.08 86.168 16.45 3.683 30.907 16.965 30.907 16.965" style="fill:#b6252a;fill-opacity:1;fill-rule:nonzero;stroke:none;stroke-width:.13333" transform="scale(.24876)"/><path d="M534.747 412.819h-70.582c-.91 0-1.646.737-1.646 1.647v4.262c0 .305.08.61.234.882.06.161.178.517.284.837 1.362 4.119 5.509 16.653 16.266 23.825 13.124 8.749 27.462 9.616 32.627 9.616 1.139 0 1.833-.043 1.969-.051a1.765 1.765 0 0 0-.236-3.522c-.173.011-17.413 1.014-32.403-8.98-9.04-6.026-13.013-16.494-14.554-21.039h68.039c.91 0 1.647-.737 1.647-1.648v-4.182c0-.91-.737-1.647-1.647-1.647m-219.675 0h70.58c.91 0 1.649.737 1.649 1.647v4.262c0 .305-.07.61-.232.882a27.1 27.1 0 0 0-.284.837c-1.363 4.119-5.51 16.653-16.268 23.825-13.122 8.749-27.461 9.616-32.626 9.616-1.14 0-1.833-.043-1.97-.051a1.763 1.763 0 0 1-1.64-1.878 1.76 1.76 0 0 1 1.875-1.644c.175.011 17.415 1.014 32.404-8.98 9.039-6.026 13.013-16.494 14.554-21.039h-68.038a1.647 1.647 0 0 1-1.648-1.648v-4.182c0-.91.737-1.647 1.648-1.647M418 527.102c-3.084 2.325-4.04 5.34-4.04 10.02 0 7.238 4.914 13.127 10.95 13.127 6.039 0 10.95-5.89 10.95-13.128 0-4.686-1-7.746-4.091-10.069-2.086 1.588-5.16 3.899-6.858 5.597-1.695-1.694-4.832-3.96-6.911-5.547" style="fill:#6f8956;fill-opacity:1;fill-rule:nonzero;stroke:none;stroke-width:.13333" transform="scale(.24876)"/><path d="M463.6 455.929c-22.307-22.308-18.31-63.341-18.31-79.733-11.46 32.657-10.984 46.01-9.397 71.12 1.586 25.112 28.6 62.051 28.6 62.051s-18.075 8.513-21.007 9.781c-1.635.707-5.311 2.667-9.15 5.347 3.485 3.044 5.053 7.216 5.053 12.626 0 9.184-6.496 16.657-14.48 16.657s-14.478-7.473-14.478-16.657c0-5.406 1.19-9.155 4.67-12.2-3.834-2.683-7.304-4.894-8.938-5.6-2.934-1.27-21.296-9.456-21.296-9.456s27.42-37.437 29.006-62.548c1.587-25.11 2.2-38.464-9.257-71.121 0 16.392 3.91 57.425-18.398 79.733-28.053 28.052-62.113 28.222-73.861 31.062v14.227s36.314 36.854 52.299 77.03c4.344-1.15 15.39-3.956 26.374-5.789 11.246-1.877 23.169-1.899 23.67-1.899h.985l9.224 14.961 9.224-14.96h.985c.5 0 12.424.02 23.67 1.898 10.985 1.833 22.032 4.64 26.375 5.79 15.984-40.177 52.298-77.03 52.298-77.03V486.99c-11.748-2.84-45.808-3.01-73.861-31.062m-36.928 157.99c-.512 0-1.023 0-1.534-.01a202.164 202.164 0 0 1-50.641-6.849c3.47 11.243 6.248 21.665 8.466 31.506a124.509 124.509 0 0 0 41.137 6.452 124.45 124.45 0 0 0 43.169-8.264c2.08-9.017 4.629-18.525 7.749-28.707a202.27 202.27 0 0 1-48.346 5.87" style="fill:#6f8956;fill-opacity:1;fill-rule:nonzero;stroke:none;stroke-width:.13333" transform="scale(.24876)"/><path d="M458.208 575.94c-9.137-1.525-19.021-1.793-22.111-1.841l-11.188 18.146-11.186-18.146c-3.092.048-12.975.316-22.113 1.841-10.555 1.762-21.18 4.436-25.686 5.623a577.693 577.693 0 0 1 7.321 21.505 198.733 198.733 0 0 0 51.92 7.317 198.636 198.636 0 0 0 51.08-6.285 573.105 573.105 0 0 1 7.352-21.72c.1-.272.197-.545.297-.817-4.506-1.187-15.13-3.861-25.686-5.623m-34.066 72.61c-.521.01-1.044.01-1.565.01a127.97 127.97 0 0 1-38.735-5.994c3.533 16.546 5.496 31.499 6.558 46.059 9.606.745 59.412.745 69.019 0 1.098-15.057 3.158-30.533 6.925-47.757a127.947 127.947 0 0 1-42.202 7.682" style="fill:#6f8956;fill-opacity:1;fill-rule:nonzero;stroke:none;stroke-width:.13333" transform="scale(.24876)"/><path d="M26.495 983.44a221 221 0 0 1-1.447 24.57 222.122 222.122 0 0 1-4.148 24.23l4.244-.772a107.53 107.53 0 0 1 3.044-10.784 107.02 107.02 0 0 1 3.128-8.119 237.262 237.262 0 0 1 60.564-6.558 1603.826 1603.826 0 0 1-38.638 55.703 1608.414 1608.414 0 0 1-40.471 53.414 668.185 668.185 0 0 1 49.992-1.14c15.609.23 30.414.995 44.33 2.127.123 2.084.201 4.257.224 6.513.03 3.188-.06 6.219-.224 9.076.987.33 2.474 1.158 3.461 1.488a615.98 615.98 0 0 1 8.971-56.585l-4.144 1.226a86.739 86.739 0 0 1-2.435 10.63 86.59 86.59 0 0 1-3.683 10.09 99.257 99.257 0 0 1-12.707 4.608c-3.308.949-11.032 2.98-29.311 4.106-6.88.425-15.791.755-26.257.56a5958.118 5958.118 0 0 0 38.764-53.02 5975.288 5975.288 0 0 0 39.053-54.679 683.785 683.785 0 0 1-48.673.822 683.813 683.813 0 0 1-39.212-1.864 64.218 64.218 0 0 1-.52-14.936l-3.905-.705" style="fill:#fab85f;fill-opacity:1;fill-rule:nonzero;stroke:none;stroke-width:.13333" transform="scale(.24876)"/><path d="M108.066 1131.072c.372.156.765.341 1.149.521l.547.253a622.55 622.55 0 0 1 3.428-25.5 621.048 621.048 0 0 1 5.103-28.402l-2.086.617a88.137 88.137 0 0 1-2.361 10.162 88.188 88.188 0 0 1-3.724 10.2l-.145.336-.335.147a100.264 100.264 0 0 1-12.828 4.65c-2.549.732-10.306 2.958-29.512 4.142-8.676.536-17.536.724-26.331.562l-1.815-.033 1.08-1.46a6066.185 6066.185 0 0 0 38.758-53.013 6040.276 6040.276 0 0 0 37.935-53.095 688.608 688.608 0 0 1-46.814.724 689.35 689.35 0 0 1-39.266-1.865l-.742-.057-.112-.737a65.019 65.019 0 0 1-.724-8.123c-.05-2.052-.01-4.126.13-6.184l-1.977-.357a225.22 225.22 0 0 1-1.445 23.558 224.262 224.262 0 0 1-3.853 22.947l2.244-.408a108.371 108.371 0 0 1 2.932-10.272 108.428 108.428 0 0 1 3.154-8.191l.187-.43.453-.109a239.335 239.335 0 0 1 28.161-5.024 240.272 240.272 0 0 1 32.642-1.56l1.702.035-.94 1.42a1616.469 1616.469 0 0 1-38.66 55.735 1616.39 1616.39 0 0 1-39.201 51.806 669.173 669.173 0 0 1 47.977-1.018c14.743.216 29.679.933 44.392 2.13l.812.066.05.812c.128 2.176.202 4.383.224 6.558.03 2.807-.03 5.648-.187 8.458zm3.291 3.369-1.099-.365c-.547-.182-1.203-.49-1.837-.786-.581-.273-1.184-.556-1.624-.702l-.681-.227.04-.717a132.127 132.127 0 0 0 .046-14.665 667.517 667.517 0 0 0-93.377-.92l-2.09.127 1.3-1.643a1613.612 1613.612 0 0 0 40.447-53.383 1611.02 1611.02 0 0 0 37.669-54.245 236.14 236.14 0 0 0-58.162 6.452 107.811 107.811 0 0 0-2.916 7.618 107.04 107.04 0 0 0-3.017 10.69l-.138.603-6.249 1.139.316-1.387a222.14 222.14 0 0 0 4.131-24.126 222.267 222.267 0 0 0 1.44-24.466v-1.118l5.841 1.054-.07.847a63.595 63.595 0 0 0-.189 6.83c.06 2.384.261 4.787.595 7.153a684.338 684.338 0 0 0 38.411 1.804 683.21 683.21 0 0 0 48.607-.82l1.926-.1-1.112 1.576a5998.31 5998.31 0 0 1-39.059 54.687 6024.987 6024.987 0 0 1-37.687 51.565c8.151.103 16.333-.092 24.362-.588 19.001-1.172 26.609-3.354 29.11-4.073a98.541 98.541 0 0 0 12.253-4.416 86.21 86.21 0 0 0 3.499-9.647 86.562 86.562 0 0 0 2.408-10.514l.09-.58 6.207-1.838-.316 1.533a618.599 618.599 0 0 0-5.401 29.84 620.657 620.657 0 0 0-3.556 26.657l-.128 1.151" style="fill:#f89f2e;fill-opacity:1;fill-rule:nonzero;stroke:none;stroke-width:.13333" transform="scale(.24876)"/><path d="m196.809 1055.096 17.097-47.493 16.497 48.308zm75.04 53.763a880.616 880.616 0 0 1-25.326-63.228 880.722 880.722 0 0 1-13.62-41.447 45.646 45.646 0 0 1 6.043-1.577 45.539 45.539 0 0 1 5.546-.703l.57-3.8a275.23 275.23 0 0 1-49.583 0v3.8a50.457 50.457 0 0 1 13.298 2.09 1316.628 1316.628 0 0 1-15.697 43.801 1318.869 1318.869 0 0 1-24.957 61.265c-4.686.694-9.371 1.387-14.058 2.079v3.42a352.636 352.636 0 0 1 42.934 0c-.06-1.076-.127-2.153-.19-3.23l-14.247-2.303a364.92 364.92 0 0 1 4.924-22.065 365.785 365.785 0 0 1 7.043-24.076 377.343 377.343 0 0 1 37.615-2.09 843.567 843.567 0 0 1 9.524 25.723 840.232 840.232 0 0 1 7.573 22.541l-16.527 1.89-.57 3.61a435.83 435.83 0 0 1 28.373-.859c9.232.021 18.026.336 26.339.859v-3.42l-15.007-2.28" style="fill:#fab85f;fill-opacity:1;fill-rule:nonzero;stroke:none;stroke-width:.13333" transform="scale(.24876)"/><path d="m198.13 1054.192 30.952.748-15.198-44.507zm33.593 2.688-36.235-.878 18.442-51.23zM155 1111.948v1.616a357.35 357.35 0 0 1 20.559-.596h.12c6.735 0 13.565.201 20.32.592l-.08-1.426-14.457-2.338.18-.946a370.152 370.152 0 0 1 4.939-22.121 368.681 368.681 0 0 1 7.062-24.137l.189-.574.602-.064a380.482 380.482 0 0 1 18.173-1.48 379.658 379.658 0 0 1 19.535-.615h.645l.234.601a842.636 842.636 0 0 1 17.115 48.316l.35 1.087-16.955 1.937-.276 1.754c9.043-.543 18.205-.787 27.266-.787 8.432.019 16.972.288 25.402.797v-1.616l-14.718-2.236-.208-.468a885.984 885.984 0 0 1-25.354-63.295 884.581 884.581 0 0 1-13.633-41.493l-.263-.87.863-.288a46.787 46.787 0 0 1 11.07-2.271l.283-1.883c-7.92.682-15.998 1.01-23.898 1.02-7.87-.01-15.82-.356-23.646-1.034v1.869a51.368 51.368 0 0 1 12.629 2.1l.932.277-.312.92a1327.243 1327.243 0 0 1-15.71 43.834 1326.982 1326.982 0 0 1-24.973 61.309l-.208.476zm76.035 3.619.864-5.468 16.1-1.84a840.033 840.033 0 0 0-7.216-21.429 842.168 842.168 0 0 0-9.28-25.092 377.273 377.273 0 0 0-36.275 2.015 367.202 367.202 0 0 0-6.837 23.441 368.335 368.335 0 0 0-4.73 21.061l14.038 2.27.296 5.033-1.053-.064a351.458 351.458 0 0 0-21.264-.651h-.117c-7.123 0-14.334.217-21.44.65l-.993.06v-5.22l14.344-2.122a1326.405 1326.405 0 0 0 24.73-60.748 1323.957 1323.957 0 0 0 15.37-42.841 50.273 50.273 0 0 0-5.556-1.2 49.38 49.38 0 0 0-6.557-.58l-.917-.02v-5.743l1.02.092c8.1.733 16.343 1.108 24.5 1.115 8.296.043 16.668-.37 24.914-1.115l1.188-.108-.857 5.728-.755.048a44.826 44.826 0 0 0-10.486 1.952 881.34 881.34 0 0 0 13.338 40.524 883.476 883.476 0 0 0 25.09 62.696l15.299 2.323v5.222l-.996-.063a435.54 435.54 0 0 0-26.284-.855c-9.382-.04-18.93.267-28.311.855l-1.167.073" style="fill:#f89f2e;fill-opacity:1;fill-rule:nonzero;stroke:none;stroke-width:.13333" transform="scale(.24876)"/><path d="m744.057 1055.096 17.097-47.493 16.495 48.308zm75.039 53.763a880.616 880.616 0 0 1-25.326-63.228 879.176 879.176 0 0 1-13.618-41.447 45.67 45.67 0 0 1 6.04-1.577 45.539 45.539 0 0 1 5.548-.703l.57-3.8a275.232 275.232 0 0 1-49.584 0v3.8a50.187 50.187 0 0 1 6.684.594c2.488.389 4.705.926 6.615 1.496a1319.65 1319.65 0 0 1-15.697 43.801 1317.38 1317.38 0 0 1-24.958 61.265l-14.057 2.079v3.42a352.561 352.561 0 0 1 42.933 0c-.06-1.076-.126-2.153-.19-3.23l-14.248-2.303a367.5 367.5 0 0 1 4.924-22.065 366.583 366.583 0 0 1 7.045-24.076 377.453 377.453 0 0 1 37.615-2.09 843.602 843.602 0 0 1 9.522 25.723 836.852 836.852 0 0 1 7.575 22.541l-16.528 1.89-.57 3.61a435.82 435.82 0 0 1 54.713 0v-3.42l-15.008-2.28" style="fill:#fab85f;fill-opacity:1;fill-rule:nonzero;stroke:none;stroke-width:.13333" transform="scale(.24876)"/><path d="m745.378 1054.192 30.95.748-15.197-44.507zm33.593 2.688-36.237-.878 18.444-51.23zm-76.721 55.068v1.616a357.315 357.315 0 0 1 20.558-.596h.119c6.734 0 13.566.201 20.322.592l-.08-1.426-14.457-2.338.18-.946a369.545 369.545 0 0 1 4.937-22.121 368.553 368.553 0 0 1 7.063-24.138l.189-.573.603-.064a380.188 380.188 0 0 1 18.17-1.48 380.49 380.49 0 0 1 19.537-.615h.644l.233.601a846.243 846.243 0 0 1 9.536 25.75 848.036 848.036 0 0 1 7.58 22.566l.35 1.087-16.954 1.937-.276 1.754c9.044-.543 18.213-.787 27.267-.787 8.43.019 16.972.288 25.4.797v-1.616l-14.717-2.236-.21-.468a885.84 885.84 0 0 1-25.352-63.295 881.944 881.944 0 0 1-13.633-41.493l-.262-.87.862-.288a46.746 46.746 0 0 1 11.07-2.271l.283-1.883a277.532 277.532 0 0 1-23.704 1.02h-.196a278.852 278.852 0 0 1-23.644-1.034v1.869c1.968.079 3.946.27 5.89.575 2.275.357 4.54.869 6.737 1.525l.932.277-.312.92a1324.976 1324.976 0 0 1-15.707 43.834 1329.026 1329.026 0 0 1-24.974 61.309l-.208.476zm76.034 3.619.863-5.468 16.102-1.84a849.763 849.763 0 0 0-7.218-21.429 845.838 845.838 0 0 0-9.278-25.092 377.197 377.197 0 0 0-36.276 2.015 368.363 368.363 0 0 0-6.837 23.441 365.497 365.497 0 0 0-4.728 21.061l14.034 2.27.298 5.033-1.054-.064a351.4 351.4 0 0 0-21.263-.651h-.12c-7.12 0-14.331.217-21.438.65l-.994.06v-5.22l14.345-2.122a1322.75 1322.75 0 0 0 24.73-60.748 1321.628 1321.628 0 0 0 15.372-42.841 50.273 50.273 0 0 0-5.557-1.2 49.36 49.36 0 0 0-6.56-.58l-.916-.02v-5.743l1.02.092a275.65 275.65 0 0 0 24.502 1.115h.193c8.223 0 16.537-.375 24.722-1.115l1.187-.108-.86 5.728-.753.048a44.785 44.785 0 0 0-10.487 1.952 881.492 881.492 0 0 0 13.34 40.524 883.345 883.345 0 0 0 25.09 62.696l15.3 2.323v5.222l-.998-.063a435.465 435.465 0 0 0-26.283-.855c-9.42-.04-18.93.266-28.311.855l-1.167.073" style="fill:#f89f2e;fill-opacity:1;fill-rule:nonzero;stroke:none;stroke-width:.13333" transform="scale(.24876)"/><path d="m320.193 998.104.649 3.735 17.232 2.113a1408.818 1408.818 0 0 1 0 105.016l-17.232 2.276-.65 3.315a620.031 620.031 0 0 1 57.385 0l-.514-3.11-17.846-2.55-1.201-52.028c5.345-.157 9.856 0 13.262.215 9.339.584 13.719 1.782 15.549 2.328a53.118 53.118 0 0 1 4.415 1.53l.749 13.933 3.537.858c.05-5.672.276-11.676.73-17.977a285.53 285.53 0 0 1 1.95-18.572c-1.214.215-2.43.43-3.644.643l-2.037 9.646a265.131 265.131 0 0 1-34.404 2.037 407.343 407.343 0 0 1-.16-23.382 407.536 407.536 0 0 1 1.237-23.991c7.194.3 13.514.817 18.782 1.365 7.43.775 11.88 1.52 16.945 3.91a38.648 38.648 0 0 1 4.567 2.549l.965 12.647 3.644 1.394a311.024 311.024 0 0 1 2.786-40.193c-1.25.286-2.501.571-3.75.858l-2.36 11.574a770.166 770.166 0 0 1-48.308.93 770.021 770.021 0 0 1-32.278-1.069" style="fill:#fab85f;fill-opacity:1;fill-rule:nonzero;stroke:none;stroke-width:.13333" transform="scale(.24876)"/><path d="M348.919 1112.957h.544c8.942.01 18.019.215 27.002.614l-.214-1.292-17.951-2.565-1.241-53.752.929-.027c4.457-.134 8.946-.06 13.349.217 9.904.617 14.31 1.932 15.758 2.364 1.528.456 3.039.979 4.492 1.557l.557.221.746 13.836 1.714.416c.08-5.612.318-11.277.72-16.857a288.939 288.939 0 0 1 1.783-17.358l-1.757.31-2.044 9.68-.662.083a266.87 266.87 0 0 1-18.167 1.64c-5.435.3-10.94.434-16.36.406l-.898-.01-.03-.898a410.528 410.528 0 0 1-.16-23.436 409.72 409.72 0 0 1 1.24-24.048l.07-.897.9.037a306.16 306.16 0 0 1 18.838 1.372c7.643.796 12.172 1.597 17.25 3.994a39.742 39.742 0 0 1 4.678 2.61l.388.252.953 12.517 1.829.698c.06-6.486.319-13.034.779-19.487a314.843 314.843 0 0 1 1.829-18.134l-1.85.424-2.382 11.694-.725.037a779.875 779.875 0 0 1-48.368.932 772.735 772.735 0 0 1-31.142-1.01l.329 1.893 17.334 2.125.03.798c.597 15.963.924 32.156.974 48.127.06 18.901-.27 38.065-.974 56.959l-.03.79-17.347 2.291-.292 1.484c9.154-.405 18.423-.61 27.578-.61zm-29.875 2.592 1.009-5.145 17.114-2.261c.684-18.613 1-37.48.944-56.095a1413.92 1413.92 0 0 0-.944-47.264l-17.13-2.1-.97-5.58 1.177.064a768.357 768.357 0 0 0 79.763.175l2.334-11.453 5.658-1.295-.182 1.34a312.094 312.094 0 0 0-1.993 19.357 312.388 312.388 0 0 0-.784 20.714v1.355l-5.463-2.088-.974-12.773a37.771 37.771 0 0 0-4.07-2.237c-4.86-2.296-9.061-3.036-16.641-3.825a305.597 305.597 0 0 0-17.822-1.326 407.592 407.592 0 0 0-1.162 23.038 407.066 407.066 0 0 0 .127 22.43c5.094.04 10.249-.124 15.345-.409 5.778-.32 11.62-.84 17.377-1.544l2.028-9.61 5.534-.978-.176 1.275a286.31 286.31 0 0 0-2.67 36.43l-.01 1.178-5.36-1.3-.756-14.024a51.783 51.783 0 0 0-3.78-1.287c-1.396-.416-5.648-1.684-15.338-2.29a146.7 146.7 0 0 0-12.245-.24l1.16 50.303 17.74 2.534.815 4.929-1.156-.053c-9.33-.43-18.775-.653-28.073-.661-9.726-.035-19.531.213-29.225.66l-1.192.057" style="fill:#f89f2e;fill-opacity:1;fill-rule:nonzero;stroke:none;stroke-width:.13333" transform="scale(.24876)"/><path d="m457.56 998.426.704 3.317 17.08 2.577c.593 15.884.934 32.27.972 49.131.04 19.03-.307 37.463-.972 55.257-5.727.878-11.452 1.754-17.18 2.63l-.604 3.22a555.706 555.706 0 0 1 27.275-.891c9.993-.08 19.577.113 28.714.513a5057.49 5057.49 0 0 0-.733-3.117l-16.964-2.292a2051.372 2051.372 0 0 1-.132-104.385l17.183-2.531.646-3.43a459.218 459.218 0 0 1-55.99 0" style="fill:#fab85f;fill-opacity:1;fill-rule:nonzero;stroke:none;stroke-width:.13333" transform="scale(.24876)"/><path d="m458.963 1112.164-.262 1.39a560.568 560.568 0 0 1 26.126-.825c9.155-.073 18.41.083 27.528.463l-.303-1.286-17.116-2.314-.02-.797a2062.222 2062.222 0 0 1-.734-54.828c0-16.497.204-33.186.602-49.605l.02-.79 17.304-2.546.3-1.592a464.408 464.408 0 0 1-25.622.781c-9.33 0-18.742-.237-28.053-.78l.312 1.479 17.206 2.596.03.776c.61 16.33.939 32.87.974 49.162a1402.28 1402.28 0 0 1-.974 55.296l-.03.775zm-2.546 3.399.95-5.05 17.069-2.614a1398.17 1398.17 0 0 0 0-102.768l-16.953-2.559-1.095-5.154 1.229.075c9.67.588 19.472.881 29.162.848a462.68 462.68 0 0 0 26.714-.848l1.2-.073-.993 5.266-17.062 2.51a2061.07 2061.07 0 0 0-.582 48.772c0 17.911.239 36.067.71 53.982l16.815 2.272 1.163 4.95-1.236-.054a556.185 556.185 0 0 0-28.665-.513 556.85 556.85 0 0 0-27.228.89l-1.198.068" style="fill:#f89f2e;fill-opacity:1;fill-rule:nonzero;stroke:none;stroke-width:.13333" transform="scale(.24876)"/><path d="M599.579 1055.938a860.708 860.708 0 0 1-.02-26.472c.125-8.917.385-17.611.757-26.072 0 0 37.909-.013 37.909 22.392 0 31.753-38.641 30.152-38.641 30.152zm62.573 39.261a381.487 381.487 0 0 1-26.994-42.4c9.652-5.785 23.214-18.086 23.214-32.413 0-13.823-18-22.703-48.108-21.96H562.42l.5 3.769 17.465 1.996c.624 16.037.983 32.608 1.017 49.685.04 18.977-.322 37.34-1.008 55.044l-17.474 2.547-.5 3.325a608.623 608.623 0 0 1 55.763-.521l-.875-3.065-17.19-2.299-.217-47.842 15.216-.766a1501.558 1501.558 0 0 1 15.04 16.618c15.93 17.869 21.945 25.478 33.609 35.133a169.969 169.969 0 0 0 9.265 7.147l7.226-1.204a380.575 380.575 0 0 1-18.105-22.794" style="fill:#fab85f;fill-opacity:1;fill-rule:nonzero;stroke:none;stroke-width:.13333" transform="scale(.24876)"/><path d="M601.209 1004.35c-.36 8.33-.602 16.78-.72 25.13-.12 8.486-.115 17.071.01 25.532 3.882-.012 19.63-.646 29.162-9.797 5.056-4.854 7.618-11.39 7.618-19.427 0-19.34-30.42-21.252-36.073-21.438zm-.566 52.54c-.617 0-1.001-.012-1.101-.016l-.884-.036-.01-.885a893.312 893.312 0 0 1-.03-26.5c.124-8.674.38-17.455.762-26.1l.04-.895h.896c.424 0 9.736.035 19.216 2.833 12.839 3.79 19.626 10.877 19.626 20.498 0 8.57-2.76 15.564-8.203 20.785-10.037 9.63-25.964 10.318-30.311 10.318zm14.868 2.452.296.323a1512.442 1512.442 0 0 1 15.049 16.628c2.916 3.27 5.498 6.196 7.845 8.856 10.438 11.824 16.187 18.337 25.663 26.18a170.271 170.271 0 0 0 8.899 6.882l5.205-.87a382.564 382.564 0 0 1-17.07-21.587 383.406 383.406 0 0 1-27.061-42.504l-.435-.792.774-.462c10.499-6.294 22.759-18.35 22.759-31.61 0-3.985-1.585-7.551-4.712-10.602-7.394-7.213-22.463-10.908-42.436-10.421h-46.798l.263 1.983 17.538 2.006.03.803c.64 16.506.985 33.234 1.019 49.719a1355.7 1355.7 0 0 1-1.008 55.08l-.03.778-17.558 2.559-.226 1.501c8.49-.452 17.1-.73 25.617-.825 9.229-.1 18.569.01 27.794.323l-.352-1.24-17.39-2.326-.227-49.55zm57.29 60.843-.316-.225a172.437 172.437 0 0 1-9.317-7.19c-9.586-7.934-15.371-14.487-25.871-26.381a2296.468 2296.468 0 0 0-7.84-8.85 1509.88 1509.88 0 0 0-14.731-16.281l-13.884.698.21 46.131 16.988 2.272 1.397 4.896-1.288-.047a608.618 608.618 0 0 0-55.677.52l-1.15.063.774-5.152 17.393-2.535c.685-17.986 1.015-36.226.976-54.226a1348.09 1348.09 0 0 0-.985-48.847l-17.393-1.988-.736-5.553h48.913c20.46-.49 36.01 3.385 43.769 10.954 3.5 3.416 5.277 7.433 5.277 11.942 0 13.715-12.161 26.078-22.9 32.746a381.884 381.884 0 0 0 26.498 41.514 379.818 379.818 0 0 0 18.06 22.737l1.082 1.261-9.25 1.541" style="fill:#f89f2e;fill-opacity:1;fill-rule:nonzero;stroke:none;stroke-width:.13333" transform="scale(.24876)"/><path d="m127.339 1158.368.353 1.356 6.246.707c.1 6.057.148 12.197.15 18.417 0 6.613-.05 13.135-.15 19.566l-6.286 1.05-.313 1.425a130.284 130.284 0 0 1 10.065-.397c3.644 0 7.067.148 10.237.397-.174-.475-.35-.95-.526-1.424l-5.644-.791a368.173 368.173 0 0 1-.267-18.143 376.196 376.196 0 0 1 24.63-1.371c.129 3.221.199 6.565.195 10.025 0 3.232-.07 6.361-.195 9.384l-6.434.949-.211 1.37a156.519 156.519 0 0 1 20.199-.264l-.316-1.16-6.118-.895a532.147 532.147 0 0 1-.332-21.16c.02-5.749.139-11.356.332-16.814l6.065-.897.369-1.108a223.076 223.076 0 0 1-20.094-.222c.09.426.176.851.263 1.276l5.854.951c.192 2.719.307 5.625.304 8.697 0 2.724-.09 5.315-.25 7.757a317.24 317.24 0 0 1-24.63.264 131.947 131.947 0 0 1-.06-8.177c.07-3.064.243-5.969.484-8.7l5.855-.844.316-1.224c-3.318.14-6.767.215-10.34.21-3.363 0-6.616-.08-9.752-.21" style="fill:#fab85f;fill-opacity:1;fill-rule:nonzero;stroke:none;stroke-width:.13333" transform="scale(.24876)"/><path d="m133.964 1159.491.897.101.01.823a1198.405 1198.405 0 0 1 0 38.014l-.01.78-2.737.458c1.793-.074 3.583-.124 5.369-.111 1.31 0 2.629.02 3.949.06l-.877-.124-.03-.78a363.97 363.97 0 0 1-.228-7.999 384.09 384.09 0 0 1-.04-10.19v-.851l.845-.075a378.063 378.063 0 0 1 24.693-1.373l.92-.021.04.92a242.233 242.233 0 0 1 0 19.483l-.03.776-1.457.213a164.04 164.04 0 0 1 7.483-.11l-.72-.106-.03-.78a535.007 535.007 0 0 1-.332-21.198c.02-5.612.136-11.277.333-16.842l.03-.78.87-.128a221.03 221.03 0 0 1-8.114-.106l1.492.242.05.74a123.784 123.784 0 0 1 .307 8.764c0 2.59-.09 5.219-.254 7.817l-.05.835-.836.04c-4.035.2-8.128.324-12.164.37-4.17.044-8.39.011-12.538-.107l-.876-.024-.03-.874a133.876 133.876 0 0 1-.06-8.237c.07-2.91.232-5.859.488-8.76l.07-.739.912-.132a233.99 233.99 0 0 1-7.34.01zm15.065 42.447-1.46-.115c-3.37-.264-6.816-.456-10.164-.393a130 130 0 0 0-9.994.393l-1.26.1.723-3.277 6.14-1.028c.09-6.233.14-12.544.138-18.77 0-5.817-.05-11.726-.137-17.58l-6.067-.686-.836-3.202 1.266.053c3.234.134 6.504.205 9.715.209 3.412 0 6.89-.067 10.299-.208l1.262-.053-.79 3.051-5.733.826a132.689 132.689 0 0 0-.42 7.9c-.06 2.4-.04 4.833.03 7.243a319.547 319.547 0 0 0 22.842-.246c.129-2.286.196-4.59.198-6.863 0-2.625-.08-5.276-.252-7.892l-5.757-.934-.64-3.1 1.216.068a221.959 221.959 0 0 0 20.01.22l1.347-.047-.977 2.932-5.863.868a541.906 541.906 0 0 0-.305 16.005c-.03 6.752.07 13.591.305 20.343l5.95.872.819 2.998-1.292-.065a155.187 155.187 0 0 0-10.085-.192c-3.32.043-6.682.196-9.994.455l-1.18.092.497-3.224 6.349-.936a239.822 239.822 0 0 0 .006-17.637 373.91 373.91 0 0 0-22.801 1.271c-.02 3.102 0 6.224.04 9.29.04 2.431.109 4.823.197 7.176l5.422.76 1.23 3.322" style="fill:#f89f2e;fill-opacity:1;fill-rule:nonzero;stroke:none;stroke-width:.13333" transform="scale(.24876)"/><path d="m244.895 1158.638.29 1.341 3.614.524a986.656 986.656 0 0 1 8.757 17.704 978.78 978.78 0 0 1 11.523 24.782 1440.495 1440.495 0 0 1 12.747-25.49c2.912-5.683 5.832-11.29 8.758-16.821l3.672-.991.234-1.05a114.578 114.578 0 0 1-6.362.247c-3.17.036-6.165-.06-8.966-.246.1.41.195.816.292 1.224l5.536.933a221.958 221.958 0 0 1-5.521 14.113 222.018 222.018 0 0 1-8.116 16.833 431.11 431.11 0 0 1-8.084-18.012 433.73 433.73 0 0 1-5.32-13.226l5.479-.816.349-1.05a180.461 180.461 0 0 1-18.882 0" style="fill:#fab85f;fill-opacity:1;fill-rule:nonzero;stroke:none;stroke-width:.13333" transform="scale(.24876)"/><path d="m249.472 1159.756.163.324a986.835 986.835 0 0 1 8.765 17.721 988.607 988.607 0 0 1 10.715 22.981 1469.125 1469.125 0 0 1 11.876-23.71 1494.033 1494.033 0 0 1 8.765-16.83l.19-.362.386-.104a110.191 110.191 0 0 1-5.544.035l1.455.246-.37 1.05a223.438 223.438 0 0 1-5.544 14.172 223.329 223.329 0 0 1-8.15 16.904l-.876 1.634-.796-1.673a435.365 435.365 0 0 1-8.101-18.049 439.333 439.333 0 0 1-5.332-13.256l-.396-1.033c-.776.011-1.548.015-2.322.017-1.623 0-3.255-.023-4.884-.067zm19.573 45.442-.82-1.827a990.783 990.783 0 0 0-11.513-24.756 988.628 988.628 0 0 0-8.528-17.255l-3.776-.546-.69-3.175 1.226.063c3.163.165 6.327.205 9.548.247 3.078 0 6.186-.087 9.236-.247l1.372-.07-.966 2.898-4.892.728a439.666 439.666 0 0 0 4.89 12.109 434.373 434.373 0 0 0 7.267 16.285 222.623 222.623 0 0 0 7.21-15.115 222.053 222.053 0 0 0 5.125-13.003l-5.048-.85-.73-3.065 1.269.084a115.008 115.008 0 0 0 15.202 0l1.248-.084-.627 2.825-3.826 1.032a1478.88 1478.88 0 0 0-8.563 16.45 1449.594 1449.594 0 0 0-12.737 25.473l-.877 1.799" style="fill:#f89f2e;fill-opacity:1;fill-rule:nonzero;stroke:none;stroke-width:.13333" transform="scale(.24876)"/><path d="m358.22 1158.544.443 1.503 6.455.62a1023.894 1023.894 0 0 1-.556 16.369c-.305 7.285-.682 14.446-1.124 21.485-1.738.353-3.478.706-5.218 1.061v1.237a117.891 117.891 0 0 1 17.158 0l-.353-1.328-6.36-.832a364.079 364.079 0 0 1-1.188-34.23 1570.976 1570.976 0 0 1 14.297 16.193 1580.953 1580.953 0 0 1 19.5 22.824 484.63 484.63 0 0 1 2.163-42.996l4.263-.74.309-1.166a108.913 108.913 0 0 1-16.37 0l.432 1.227 5.992.864a208.52 208.52 0 0 1 1.113 30.084 396.393 396.393 0 0 1-13.293-14.987 397 397 0 0 1-13.888-17.444 87.39 87.39 0 0 1-13.774.256" style="fill:#fab85f;fill-opacity:1;fill-rule:nonzero;stroke:none;stroke-width:.13333" transform="scale(.24876)"/><path d="m366.57 1162.011 1.606 1.793c4.742 5.3 9.555 10.75 14.305 16.202a1611.46 1611.46 0 0 1 17.879 20.892 486.09 486.09 0 0 1 2.145-40.536l.06-.607c-.516.013-1.031.023-1.545.029-.764.01-1.532.01-2.3 0l.197.028.08.721a209.953 209.953 0 0 1 1.117 30.22l-.08 2.258-1.541-1.652a400.715 400.715 0 0 1-13.325-15.022 399.823 399.823 0 0 1-13.605-17.068 87.257 87.257 0 0 1-7.37.367l1.887.181-.02.874a1036.477 1036.477 0 0 1-1.683 37.886l-.04.718-1.715.348a116.912 116.912 0 0 1 5.88-.06l-.7-.093-.06-.756a365.114 365.114 0 0 1-1.043-18.41 363.613 363.613 0 0 1-.15-15.908zm35.627 43.992-1.64-1.956a1596.792 1596.792 0 0 0-19.488-22.809 1625.752 1625.752 0 0 0-12.677-14.38c-.03 4.465.03 8.963.172 13.408.18 5.828.509 11.732.974 17.564l6.23.815.855 3.205-1.313-.096c-2.932-.215-5.912-.353-8.854-.31a116.944 116.944 0 0 0-8.168.31l-1.004.073v-3.011l5.265-1.07a1044.071 1044.071 0 0 0 1.077-20.75c.216-5.145.395-10.347.532-15.48l-6.215-.598-1-3.392 1.334.081c2.728.164 5.489.198 8.208.107a87.388 87.388 0 0 0 5.417-.359l.526-.052.316.42a397.292 397.292 0 0 0 25.563 30.683 207.595 207.595 0 0 0-1.097-26.947l-5.834-.844-1.097-3.114 1.43.106c3.078.234 6.203.344 9.289.302 2.314-.024 4.65-.127 6.939-.302l1.315-.099-.8 3.02-4.148.722a479.3 479.3 0 0 0-1.188 15.322 485.587 485.587 0 0 0-.904 26.876l-.01 2.554" style="fill:#f89f2e;fill-opacity:1;fill-rule:nonzero;stroke:none;stroke-width:.13333" transform="scale(.24876)"/><path d="m545.942 1171.7 1.448.535c-.123-2.904-.1-6.188.209-9.776a77.147 77.147 0 0 1 1.239-8.673c-.482.127-.965.255-1.448.381l-1.448 5.032c-6.053-1.968-11.1-1.959-14.245-1.68-3.061.27-16.725 1.479-22.624 11.897-2.47 4.36-2.7 8.783-2.695 10.67 0 2.103.313 6.791 3.018 11.148 6.33 10.197 20.642 10.296 23.674 10.317 3.2.021 9.005-.39 15.768-3.626l.992-2.44c-2.396 1.245-7.628 3.54-14.36 3.025-2.253-.172-13.457-1.03-18.785-10.52-.381-.681-5.37-9.931-.34-18.883.61-1.084 4.368-7.36 12.132-8.92 7.818-1.57 16.533 2.501 17.312 6.635l.153 4.878" style="fill:#fab85f;fill-opacity:1;fill-rule:nonzero;stroke:none;stroke-width:.13333" transform="scale(.24876)"/><path d="M534.728 1158.322c-.984 0-1.967.044-2.948.13-10.623.94-18.192 4.89-21.892 11.425-2.25 3.975-2.578 8.102-2.573 10.208 0 2.255.383 6.637 2.877 10.655 3.907 6.293 12.034 9.8 22.885 9.873 4.502.072 9.016-.86 13.377-2.651-3.001 1.05-6.773 1.807-11.053 1.483-9.005-.691-15.94-4.596-19.533-10.996-.233-.416-5.67-10.313-.34-19.8.72-1.284 4.724-7.763 12.765-9.38 4.992-1.003 10.824.11 14.862 2.829 1.652 1.113 2.776 2.369 3.296 3.672a77.815 77.815 0 0 1 .624-7.121l-.501 1.74-.921-.3c-3.618-1.175-7.28-1.767-10.925-1.767zm-1.408 44.165h-.256c-11.516-.079-20.205-3.9-24.464-10.758-2.738-4.412-3.154-9.186-3.16-11.641 0-2.29.355-6.784 2.817-11.133 4.019-7.095 12.094-11.372 23.356-12.37 4.552-.403 9.157.08 13.693 1.434l1.33-4.622 3.416-.898-.296 1.472a76.777 76.777 0 0 0-1.224 8.568 76.347 76.347 0 0 0-.206 9.656l.06 1.404-3.358-1.238-.17-5.433c-.232-1.076-1.205-2.237-2.746-3.276-2.986-2.013-8.3-3.577-13.447-2.546-7.238 1.454-10.85 7.304-11.5 8.46-4.821 8.58.127 17.586.34 17.966 3.278 5.837 9.683 9.403 18.039 10.043 5.914.455 10.806-1.337 13.857-2.921l2.257-1.172-2.085 5.13-.328.16c-5.152 2.466-10.51 3.715-15.922 3.715" style="fill:#f89f2e;fill-opacity:1;fill-rule:nonzero;stroke:none;stroke-width:.13333" transform="scale(.24876)"/><path d="m584.516 1159.732.533-1.144a161.088 161.088 0 0 1-19.058 0v1.144l4.878.839s.306 18.982.306 22.87c0 3.888 1.677 18.372 18.448 17.99 16.77-.381 17.915-15.933 17.915-18.752 0-2.822.38-22.337.38-22.337l3.736-.534.534-1.22a246.773 246.773 0 0 1-16.847 0c.177.407.354.814.533 1.22l6.098.61s.306 19.897.306 23.708c0 3.812-1.373 15.095-11.588 15.095-10.216 0-12.273-9.224-12.654-16.01-.382-6.784.38-22.793.38-22.793l6.1-.686" style="fill:#fab85f;fill-opacity:1;fill-rule:nonzero;stroke:none;stroke-width:.13333" transform="scale(.24876)"/><path d="m571.7 1159.762.09.017.01.776c0 .189.305 19.035.305 22.886 0 1.33.239 8.206 4.968 12.83 2.992 2.924 7.196 4.333 12.522 4.224 16.522-.376 16.998-16.033 16.998-17.817 0-2.798.366-21.558.382-22.354l.01-.676c-.647.01-1.295.015-1.941.02h-2.156l.01.735c0 .199.304 19.948.304 23.722 0 1.641-.352 16.03-12.524 16.03-8.388 0-12.961-5.684-13.59-16.891-.38-6.757.349-22.237.38-22.892l.03-.578a157.19 157.19 0 0 1-5.808-.033zm17.279 42.613c-5.531 0-9.973-1.601-13.207-4.764-5.268-5.147-5.535-12.707-5.535-14.17 0-3.388-.236-18.469-.292-22.08l-4.892-.838v-2.928l.994.06c2.988.176 6.022.271 9.017.278 3.3.036 6.64-.085 9.93-.279l1.57-.093-1.423 3.045-5.825.654c-.146 3.316-.671 16.102-.344 21.9.57 10.176 4.404 15.124 11.718 15.124 10.352 0 10.649-12.709 10.649-14.157 0-3.316-.233-19.042-.29-22.86l-5.812-.58-1.347-3.085 1.483.051a244.205 244.205 0 0 0 16.782 0l1.487-.05-1.338 3.06-3.464.494c-.07 3.696-.365 19.068-.365 21.522 0 7.154-3.967 19.352-18.832 19.69-.222.01-.445.01-.664.01" style="fill:#f89f2e;fill-opacity:1;fill-rule:nonzero;stroke:none;stroke-width:.13333" transform="scale(.24876)"/><path d="M648.703 1199.069c-2.876 0-5.056-.967-5.794-1.45a119.935 119.935 0 0 1-.554-8.857c-.08-3.097-.03-6.02.1-8.749 0 0 4.956.302 8.31 2.132s5.413 6.708 5.413 10.214c0 3.507-4.193 6.71-7.471 6.71zm-6.252-38.88s4.042-.38 6.176.458c2.134.839 4.498 3.736 4.498 7.013 0 3.279-.991 5.184-2.974 7.776-1.982 2.592-7.7 2.44-7.7 2.44a242.668 242.668 0 0 1 0-17.686zm8.234 17.839c4.498-.99 9.149-7.243 9.149-11.51 0-4.27-3.812-8.387-13.876-8.387-10.062 0-16.77.457-16.77.457l.457 1.448 6.023.459c.302 5.93.477 12.137.484 18.605a383.4 383.4 0 0 1-.484 19.434l-6.48.992v1.296h20.277c2.592 0 13.265-1.525 13.265-10.597s-9.453-12.197-12.045-12.197" style="fill:#fab85f;fill-opacity:1;fill-rule:nonzero;stroke:none;stroke-width:.13333" transform="scale(.24876)"/><path d="M643.358 1161.067c-.08 2.503-.127 5.028-.131 7.521 0 2.759.04 5.56.13 8.337 1.817-.084 4.888-.54 6.049-2.058 1.885-2.464 2.78-4.17 2.78-7.207 0-2.756-2.016-5.4-3.903-6.142-1.273-.5-3.537-.518-4.925-.451zm.437 35.978c.84.425 2.632 1.085 4.908 1.085 2.792 0 6.533-2.852 6.533-5.77 0-3.226-1.881-7.734-4.922-9.394-2.284-1.245-5.417-1.745-6.97-1.926a122.742 122.742 0 0 0-.06 7.7 119.734 119.734 0 0 0 .506 8.305zm-10.754 2.838h13.84c-2.148-.284-3.766-1.01-4.484-1.48l-.375-.245-.04-.445a121.498 121.498 0 0 1-.56-8.927c-.07-2.936-.04-5.902.1-8.818l.05-.947.948.057c.209.013 5.205.336 8.7 2.244 3.695 2.015 5.902 7.194 5.902 11.037 0 3.533-3.585 6.727-6.962 7.477 2.589-.237 11.643-1.65 11.643-9.611 0-8.322-8.846-11.26-11.107-11.26h-8.602l.684-.15h-.34l-.88-.025-.03-.877c-.113-3.103-.167-6.24-.162-9.325 0-2.795.06-5.63.162-8.43l.03-.822.818-.076c.174-.019 4.29-.393 6.607.516 2.503.985 5.092 4.204 5.092 7.886 0 3.536-1.113 5.662-3.168 8.346-.432.566-1.003 1.018-1.644 1.38l1.233-.274c4.175-.918 8.412-6.94 8.412-10.595 0-4.664-4.836-7.448-12.936-7.448-5.607 0-10.197.144-13.138.27l3.74.284.04.823c.314 6.201.478 12.477.485 18.653 0 6.464-.156 13.018-.485 19.483l-.04.763zm16.424 1.875h-21.216v-3.036l6.52-.999c.304-6.185.453-12.445.445-18.622 0-5.873-.153-11.834-.441-17.735l-5.831-.443-1.007-3.188 1.189-.08c.07-.01 6.856-.46 16.835-.46 10.92 0 14.81 4.815 14.81 9.322 0 3.613-3.126 8.765-7.01 11.203 4.04 1.353 9.908 5.047 9.908 12.505 0 9.413-10.517 11.533-14.202 11.533" style="fill:#f89f2e;fill-opacity:1;fill-rule:nonzero;stroke:none;stroke-width:.13333" transform="scale(.24876)"/><path d="m206.864 1179.15 6.034-16.764 5.823 17.05zm26.486 18.975a310.403 310.403 0 0 1-8.94-22.317 310.416 310.416 0 0 1-4.807-14.63 16.327 16.327 0 0 1 4.09-.804c.07-.447.136-.895.202-1.342a97.115 97.115 0 0 1-8.824.395c-3.115 0-6.018-.155-8.677-.395v1.342a17.661 17.661 0 0 1 4.694.737 467.822 467.822 0 0 1-5.54 15.461 465.63 465.63 0 0 1-8.81 21.623l-4.962.735v1.207a123.956 123.956 0 0 1 7.629-.231c2.64 0 5.152.085 7.525.23-.02-.38-.04-.76-.07-1.14l-5.03-.813a130.453 130.453 0 0 1 1.738-7.788 130.08 130.08 0 0 1 2.486-8.498 134.038 134.038 0 0 1 13.277-.737 297.338 297.338 0 0 1 6.035 17.035l-5.833.667-.202 1.275a152.34 152.34 0 0 1 10.015-.303c3.258.01 6.362.117 9.297.303v-1.207l-5.297-.805" style="fill:#fab85f;fill-opacity:1;fill-rule:nonzero;stroke:none;stroke-width:.13333" transform="scale(.24876)"/><path d="m209.506 1177.339 3.346-9.292 3.227 9.45zm16.595-20.38-2.375.207a95.591 95.591 0 0 1-8.585.388h-.07c-2.83 0-5.692-.132-8.511-.388l-2.041-.184v5.225l1.832.04c.704.015 1.415.079 2.11.187l.185.03a465.164 465.164 0 0 1-13.212 34.03l-3.933.582-1.6.237v4.815l1.988-.12a122.714 122.714 0 0 1 7.47-.228c2.505 0 5 .077 7.456.227l2.108.128-.124-2.109-.07-1.141-.09-1.499-1.483-.238-3.112-.504a130.306 130.306 0 0 1 1.338-5.784 128.726 128.726 0 0 1 2.076-7.221 131.888 131.888 0 0 1 10.591-.59 293.735 293.735 0 0 1 4.826 13.545l-3.558.407-1.416.163-.221 1.406-.201 1.275-.364 2.308 2.332-.147c3.16-.199 6.368-.299 9.53-.299h.363c3.05.01 6.14.109 9.184.3l1.99.125v-4.813l-1.592-.242-4.282-.65a310.402 310.402 0 0 1-8.471-21.248 313.568 313.568 0 0 1-4.214-12.692 14.187 14.187 0 0 1 1.854-.244l1.51-.097.222-1.494.2-1.334zm-7.38 22.477-5.823-17.05-6.034 16.763 11.857.287m5.174-20.404c-.07.447-.134.895-.201 1.342a16.268 16.268 0 0 0-4.091.805 311.006 311.006 0 0 0 13.747 36.946l5.297.804v1.208a152.129 152.129 0 0 0-9.297-.303h-.366c-3.39 0-6.611.112-9.65.304l.203-1.275 5.833-.666a295.8 295.8 0 0 0-2.673-7.956 297.338 297.338 0 0 0-3.362-9.08c-2.192.013-4.488.08-6.878.216-2.223.128-4.357.307-6.4.522a130.08 130.08 0 0 0-2.485 8.498 130.453 130.453 0 0 0-1.738 7.788l5.03.813c.02.38.04.76.07 1.14a124.055 124.055 0 0 0-7.525-.23h-.04c-2.661 0-5.194.085-7.585.23v-1.208l4.963-.733a465.63 465.63 0 0 0 8.809-21.623 467.822 467.822 0 0 0 5.54-15.461 17.708 17.708 0 0 0-4.694-.738v-1.341c2.659.24 5.562.392 8.677.395h.07c3.145 0 6.074-.152 8.754-.395" style="fill:#f89f2e;fill-opacity:1;fill-rule:nonzero;stroke:none;stroke-width:.13333" transform="scale(.24876)"/><path d="m313.838 1179.15 6.036-16.764 5.82 17.05zm26.486 18.975a311.023 311.023 0 0 1-8.938-22.317 308.824 308.824 0 0 1-4.807-14.63 16.334 16.334 0 0 1 4.09-.804l.2-1.342a97.093 97.093 0 0 1-8.823.395c-3.114 0-6.018-.155-8.677-.395v1.342a17.8 17.8 0 0 1 4.695.737 467.945 467.945 0 0 1-5.542 15.461 465.63 465.63 0 0 1-8.81 21.623l-4.96.735v1.207a123.923 123.923 0 0 1 7.629-.231c2.639 0 5.152.085 7.525.23l-.07-1.14-5.03-.813a129.462 129.462 0 0 1 4.226-16.286 133.968 133.968 0 0 1 13.277-.737 297.338 297.338 0 0 1 6.035 17.035l-5.835.667-.2 1.275a152.307 152.307 0 0 1 10.013-.303c3.259.01 6.364.117 9.299.303v-1.207l-5.3-.805" style="fill:#fab85f;fill-opacity:1;fill-rule:nonzero;stroke:none;stroke-width:.13333" transform="scale(.24876)"/><path d="m316.48 1177.339 3.346-9.292 3.228 9.45zm16.598-20.387-2.376.214a95.621 95.621 0 0 1-8.587.388h-.07c-2.831 0-5.693-.132-8.511-.388l-2.042-.184v5.225l1.833.04a16.17 16.17 0 0 1 2.11.187l.183.03a466.774 466.774 0 0 1-4.852 13.444 465.186 465.186 0 0 1-8.36 20.586l-3.933.582-1.598.237v4.815l1.986-.12a122.714 122.714 0 0 1 7.47-.228c2.507 0 5 .077 7.457.227l2.108.129-.124-2.11-.07-1.141-.09-1.499-1.483-.238-3.111-.504a128.445 128.445 0 0 1 1.336-5.784 128.726 128.726 0 0 1 2.076-7.221 131.763 131.763 0 0 1 10.593-.59 293.706 293.706 0 0 1 4.824 13.545l-3.556.407-1.416.163-.222 1.406-.2 1.275-.366 2.308 2.334-.147c3.16-.199 6.368-.299 9.53-.299h.36c3.052.01 6.143.109 9.185.3l1.992.125v-4.813l-1.592-.242-4.284-.65a310.388 310.388 0 0 1-8.47-21.248 308.943 308.943 0 0 1-4.213-12.692 14.171 14.171 0 0 1 1.853-.244l1.508-.097.224-1.493.19-1.272.01-.069zm-7.381 22.484-5.823-17.05-6.036 16.763 11.859.287m5.173-20.404c-.07.447-.133.895-.201 1.342-.588.039-1.246.113-1.958.248a16.082 16.082 0 0 0-2.132.557 310.442 310.442 0 0 0 13.747 36.946l5.297.804v1.208a152.17 152.17 0 0 0-9.297-.303h-.367c-3.388 0-6.61.112-9.648.304l.2-1.275 5.835-.666a300.585 300.585 0 0 0-2.673-7.956 297.338 297.338 0 0 0-3.362-9.08c-2.193.013-4.49.08-6.878.216a135.52 135.52 0 0 0-6.4.522 129.462 129.462 0 0 0-4.224 16.286l5.029.813.07 1.14a124.09 124.09 0 0 0-7.525-.23h-.05c-2.661 0-5.193.085-7.584.23v-1.208l4.96-.733a464.161 464.161 0 0 0 8.81-21.623 465.664 465.664 0 0 0 5.542-15.461 17.82 17.82 0 0 0-4.695-.738v-1.341c2.659.24 5.56.392 8.677.395h.07a96.97 96.97 0 0 0 8.755-.395" style="fill:#f89f2e;fill-opacity:1;fill-rule:nonzero;stroke:none;stroke-width:.13333" transform="scale(.24876)"/><path d="m434.48 1179.15 6.035-16.764 5.823 17.05zm26.487 18.975a310.392 310.392 0 0 1-8.94-22.317 312.313 312.313 0 0 1-4.807-14.63 16.334 16.334 0 0 1 4.09-.804l.2-1.342a97.093 97.093 0 0 1-8.823.395c-3.114 0-6.018-.155-8.677-.395v1.342a17.66 17.66 0 0 1 4.695.737 465.664 465.664 0 0 1-5.542 15.461 464.161 464.161 0 0 1-8.81 21.623l-4.96.735v1.207a123.956 123.956 0 0 1 7.629-.231c2.639 0 5.152.085 7.525.23-.02-.38-.05-.76-.07-1.14l-5.03-.813a127.926 127.926 0 0 1 1.738-7.788 129.257 129.257 0 0 1 2.486-8.498 133.968 133.968 0 0 1 13.277-.737 297.338 297.338 0 0 1 6.035 17.035l-5.833.667-.202 1.275a152.34 152.34 0 0 1 10.015-.303c3.258.01 6.362.117 9.297.303v-1.207l-5.297-.805" style="fill:#fab85f;fill-opacity:1;fill-rule:nonzero;stroke:none;stroke-width:.13333" transform="scale(.24876)"/><path d="m437.123 1177.339 3.346-9.292 3.226 9.45zm16.596-20.387-2.376.214a95.621 95.621 0 0 1-8.587.388h-.07c-2.831 0-5.693-.132-8.511-.388l-2.042-.184v5.225l1.833.04a16.17 16.17 0 0 1 2.11.187l.183.03a465.18 465.18 0 0 1-4.852 13.446 465.44 465.44 0 0 1-8.36 20.584l-3.931.582-1.6.237v4.815l1.986-.12a122.714 122.714 0 0 1 7.47-.228c2.507 0 5.002.077 7.457.227l2.11.129-.125-2.11-.06-1.077-.09-1.5-1.487-.301-3.112-.504a129.961 129.961 0 0 1 1.336-5.784 129.175 129.175 0 0 1 2.076-7.221 131.763 131.763 0 0 1 10.593-.59 291.658 291.658 0 0 1 4.826 13.545l-3.558.407-1.416.163-.221 1.406-.201 1.275-.366 2.308 2.334-.147c3.16-.199 6.368-.299 9.53-.299h.36c3.052.01 6.143.109 9.185.3l1.992.125v-4.813l-1.592-.242-4.284-.65a308.943 308.943 0 0 1-12.683-33.939 14.171 14.171 0 0 1 1.853-.244l1.508-.098.224-1.493.1-.635.105-.706zm-7.381 22.484-5.823-17.05-6.034 16.763 11.857.287m5.173-20.404-.2 1.342c-.588.039-1.247.113-1.96.248a16.082 16.082 0 0 0-2.131.557 310.068 310.068 0 0 0 13.747 36.946l5.297.804v1.208a152.129 152.129 0 0 0-9.297-.303h-.367c-3.388 0-6.61.112-9.648.304l.202-1.275 5.833-.666a295.8 295.8 0 0 0-2.673-7.956 297.338 297.338 0 0 0-3.362-9.08c-2.193.013-4.49.08-6.878.216a135.52 135.52 0 0 0-6.4.522 129.257 129.257 0 0 0-2.485 8.498 127.926 127.926 0 0 0-1.738 7.788l5.03.813c.02.38.04.76.07 1.14a124.09 124.09 0 0 0-7.525-.23h-.05c-2.661 0-5.193.085-7.584.23v-1.208l4.96-.733a464.161 464.161 0 0 0 8.81-21.623 465.664 465.664 0 0 0 5.542-15.461 17.82 17.82 0 0 0-4.695-.738v-1.341a97.59 97.59 0 0 0 8.677.395h.07a97.07 97.07 0 0 0 8.755-.395" style="fill:#f89f2e;fill-opacity:1;fill-rule:nonzero;stroke:none;stroke-width:.13333" transform="scale(.24876)"/><path d="m691.657 1179.15 6.034-16.764 5.823 17.05zm26.486 18.975a310.403 310.403 0 0 1-8.94-22.317 308.824 308.824 0 0 1-4.805-14.63 16.292 16.292 0 0 1 4.089-.804c.07-.447.135-.895.2-1.342a97.115 97.115 0 0 1-8.822.395c-3.116 0-6.02-.155-8.677-.395v1.342a17.762 17.762 0 0 1 4.694.737 467.884 467.884 0 0 1-5.541 15.461 465.63 465.63 0 0 1-8.81 21.623l-4.96.735v1.207a123.923 123.923 0 0 1 7.629-.231c2.638 0 5.152.085 7.524.23-.02-.38-.04-.76-.07-1.14l-5.03-.813a129.462 129.462 0 0 1 4.226-16.286 134.111 134.111 0 0 1 13.276-.737 300.015 300.015 0 0 1 3.362 9.08c.949 2.7 1.84 5.354 2.673 7.955l-5.834.667-.201 1.275a152.33 152.33 0 0 1 10.014-.303c3.259.01 6.363.117 9.297.303v-1.207l-5.297-.805" style="fill:#fab85f;fill-opacity:1;fill-rule:nonzero;stroke:none;stroke-width:.13333" transform="scale(.24876)"/><path d="m694.3 1177.339 3.346-9.292 3.227 9.45zm16.596-20.387-2.376.214a95.643 95.643 0 0 1-8.586.388h-.07a94.42 94.42 0 0 1-8.51-.388l-2.042-.184v5.225l1.832.04c.704.015 1.415.079 2.11.187l.184.03a465.006 465.006 0 0 1-4.851 13.446 467.578 467.578 0 0 1-8.36 20.584l-3.933.582-1.6.237v4.815l1.988-.12a122.714 122.714 0 0 1 7.47-.228c2.507 0 5 .077 7.456.227l2.11.129-.124-2.11-.07-1.137-.09-1.501-1.484-.24-3.112-.504a129.961 129.961 0 0 1 1.336-5.784 128.726 128.726 0 0 1 2.076-7.221 131.81 131.81 0 0 1 10.593-.59 302.05 302.05 0 0 1 2.873 7.812c.666 1.89 1.319 3.81 1.95 5.733l-3.556.407-1.416.163-.222 1.407-.2 1.274-.365 2.308 2.333-.147a152.39 152.39 0 0 1 9.53-.299h.362c3.05.01 6.14.109 9.184.3l1.992.125v-4.813l-1.594-.242-4.282-.65a310.343 310.343 0 0 1-8.471-21.248 312.89 312.89 0 0 1-4.214-12.692 14.238 14.238 0 0 1 1.854-.244l1.508-.097.224-1.493.19-1.272.01-.069zm-7.382 22.484-5.823-17.05-6.034 16.763 11.857.287m5.174-20.404c-.07.447-.133.895-.201 1.342a16.136 16.136 0 0 0-4.09.805 311.604 311.604 0 0 0 4.807 14.629 311.323 311.323 0 0 0 8.939 22.317l5.297.804v1.208a152.049 152.049 0 0 0-9.297-.303h-.365c-3.39 0-6.611.112-9.648.304l.2-1.275 5.834-.666a295.903 295.903 0 0 0-2.674-7.956 302.804 302.804 0 0 0-3.36-9.08c-2.193.013-4.49.08-6.88.216a135.12 135.12 0 0 0-6.397.522 129.462 129.462 0 0 0-4.225 16.286l5.029.813.07 1.14a124.09 124.09 0 0 0-7.525-.23h-.05c-2.661 0-5.194.085-7.583.23v-1.208l4.96-.733a465.63 465.63 0 0 0 8.81-21.623 465.542 465.542 0 0 0 5.54-15.461 17.708 17.708 0 0 0-4.693-.738v-1.341c2.658.24 5.562.392 8.677.395h.07c3.145 0 6.075-.152 8.754-.395" style="fill:#f89f2e;fill-opacity:1;fill-rule:nonzero;stroke:none;stroke-width:.13333" transform="scale(.24876)"/></svg>